<?xml version="1.0" encoding="UTF-8"?>
<svg version="1.1" xmlns="http://www.w3.org/2000/svg" width="256" height="256">
<path d="M0 0 C21.12 0 42.24 0 64 0 C64 1.32 64 2.64 64 4 C67.96 4 71.92 4 76 4 C76 5.32 76 6.64 76 8 C78.64 8 81.28 8 84 8 C84 9.32 84 10.64 84 12 C86.64 12 89.28 12 92 12 C92 13.32 92 14.64 92 16 C94.64 16 97.28 16 100 16 C100 17.32 100 18.64 100 20 C101.32 20 102.64 20 104 20 C104 21.32 104 22.64 104 24 C105.32 24 106.64 24 108 24 C108 25.32 108 26.64 108 28 C110.64 28 113.28 28 116 28 C116 29.32 116 30.64 116 32 C117.32 32 118.64 32 120 32 C120 33.32 120 34.64 120 36 C121.32 36 122.64 36 124 36 C124 38.64 124 41.28 124 44 C125.32 44 126.64 44 128 44 C128 45.32 128 46.64 128 48 C129.32 48 130.64 48 132 48 C132 50.64 132 53.28 132 56 C133.32 56 134.64 56 136 56 C136 57.32 136 58.64 136 60 C137.32 60 138.64 60 140 60 C140 62.64 140 65.28 140 68 C141.32 68 142.64 68 144 68 C144 71.96 144 75.92 144 80 C145.32 80 146.64 80 148 80 C148 83.96 148 87.92 148 92 C149.32 92 150.64 92 152 92 C152 94.64 152 97.28 152 100 C150.68 100 149.36 100 148 100 C148 101.32 148 102.64 148 104 C145.36 104 142.72 104 140 104 C140 105.32 140 106.64 140 108 C136.04 108 132.08 108 128 108 C128 109.32 128 110.64 128 112 C125.36 112 122.72 112 120 112 C120 113.32 120 114.64 120 116 C117.36 116 114.72 116 112 116 C112 117.32 112 118.64 112 120 C108.04 120 104.08 120 100 120 C100 121.32 100 122.64 100 124 C97.36 124 94.72 124 92 124 C92 125.32 92 126.64 92 128 C88.04 128 84.08 128 80 128 C80 129.32 80 130.64 80 132 C77.36 132 74.72 132 72 132 C72 133.32 72 134.64 72 136 C69.36 136 66.72 136 64 136 C64 137.32 64 138.64 64 140 C60.04 140 56.08 140 52 140 C52 141.32 52 142.64 52 144 C49.36 144 46.72 144 44 144 C44 145.32 44 146.64 44 148 C41.36 148 38.72 148 36 148 C36 149.32 36 150.64 36 152 C32.04 152 28.08 152 24 152 C24 153.32 24 154.64 24 156 C21.36 156 18.72 156 16 156 C16 157.32 16 158.64 16 160 C13.36 160 10.72 160 8 160 C8 161.32 8 162.64 8 164 C4.04 164 0.08 164 -4 164 C-4 165.32 -4 166.64 -4 168 C-6.64 168 -9.28 168 -12 168 C-12 153.48 -12 138.96 -12 124 C-10.68 124 -9.36 124 -8 124 C-8 122.68 -8 121.36 -8 120 C-5.36 120 -2.72 120 0 120 C0 118.68 0 117.36 0 116 C2.64 116 5.28 116 8 116 C8 114.68 8 113.36 8 112 C11.96 112 15.92 112 20 112 C20 110.68 20 109.36 20 108 C22.64 108 25.28 108 28 108 C28 106.68 28 105.36 28 104 C30.64 104 33.28 104 36 104 C36 102.68 36 101.36 36 100 C39.96 100 43.92 100 48 100 C48 98.68 48 97.36 48 96 C50.64 96 53.28 96 56 96 C56 94.68 56 93.36 56 92 C59.96 92 63.92 92 68 92 C68 90.68 68 89.36 68 88 C70.64 88 73.28 88 76 88 C76 86.68 76 85.36 76 84 C78.64 84 81.28 84 84 84 C84 82.68 84 81.36 84 80 C87.96 80 91.92 80 96 80 C96 78.68 96 77.36 96 76 C94.68 76 93.36 76 92 76 C92 74.68 92 73.36 92 72 C90.68 72 89.36 72 88 72 C88 69.36 88 66.72 88 64 C86.68 64 85.36 64 84 64 C84 62.68 84 61.36 84 60 C81.36 60 78.72 60 76 60 C76 58.68 76 57.36 76 56 C74.68 56 73.36 56 72 56 C72 54.68 72 53.36 72 52 C69.36 52 66.72 52 64 52 C64 50.68 64 49.36 64 48 C62.68 48 61.36 48 60 48 C60 46.68 60 45.36 60 44 C56.04 44 52.08 44 48 44 C48 42.68 48 41.36 48 40 C37.44 40 26.88 40 16 40 C16 41.32 16 42.64 16 44 C13.36 44 10.72 44 8 44 C8 45.32 8 46.64 8 48 C5.36 48 2.72 48 0 48 C0 49.32 0 50.64 0 52 C-2.64 52 -5.28 52 -8 52 C-8 53.32 -8 54.64 -8 56 C-9.32 56 -10.64 56 -12 56 C-12 57.32 -12 58.64 -12 60 C-14.64 60 -17.28 60 -20 60 C-20 61.32 -20 62.64 -20 64 C-21.32 64 -22.64 64 -24 64 C-24 66.64 -24 69.28 -24 72 C-25.32 72 -26.64 72 -28 72 C-28 73.32 -28 74.64 -28 76 C-29.32 76 -30.64 76 -32 76 C-32 78.64 -32 81.28 -32 84 C-33.32 84 -34.64 84 -36 84 C-36 86.64 -36 89.28 -36 92 C-37.32 92 -38.64 92 -40 92 C-40 95.96 -40 99.92 -40 104 C-41.32 104 -42.64 104 -44 104 C-44 119.84 -44 135.68 -44 152 C-42.68 152 -41.36 152 -40 152 C-40 154.64 -40 157.28 -40 160 C-38.68 160 -37.36 160 -36 160 C-36 162.64 -36 165.28 -36 168 C-34.68 168 -33.36 168 -32 168 C-32 170.64 -32 173.28 -32 176 C-30.68 176 -29.36 176 -28 176 C-28 177.32 -28 178.64 -28 180 C-26.68 180 -25.36 180 -24 180 C-24 181.32 -24 182.64 -24 184 C-22.68 184 -21.36 184 -20 184 C-20 185.32 -20 186.64 -20 188 C-18.68 188 -17.36 188 -16 188 C-16 189.32 -16 190.64 -16 192 C-14.68 192 -13.36 192 -12 192 C-12 193.32 -12 194.64 -12 196 C-9.36 196 -6.72 196 -4 196 C-4 197.32 -4 198.64 -4 200 C-2.68 200 -1.36 200 0 200 C0 201.32 0 202.64 0 204 C3.96 204 7.92 204 12 204 C12 205.32 12 206.64 12 208 C27.84 208 43.68 208 60 208 C60 206.68 60 205.36 60 204 C63.96 204 67.92 204 72 204 C72 202.68 72 201.36 72 200 C73.32 200 74.64 200 76 200 C76 198.68 76 197.36 76 196 C78.64 196 81.28 196 84 196 C84 194.68 84 193.36 84 192 C85.32 192 86.64 192 88 192 C88 190.68 88 189.36 88 188 C89.32 188 90.64 188 92 188 C92 186.68 92 185.36 92 184 C93.32 184 94.64 184 96 184 C96 182.68 96 181.36 96 180 C97.32 180 98.64 180 100 180 C100 177.36 100 174.72 100 172 C101.32 172 102.64 172 104 172 C104 170.68 104 169.36 104 168 C119.84 168 135.68 168 152 168 C152 170.64 152 173.28 152 176 C150.68 176 149.36 176 148 176 C148 178.64 148 181.28 148 184 C146.68 184 145.36 184 144 184 C144 186.64 144 189.28 144 192 C142.68 192 141.36 192 140 192 C140 194.64 140 197.28 140 200 C138.68 200 137.36 200 136 200 C136 201.32 136 202.64 136 204 C134.68 204 133.36 204 132 204 C132 205.32 132 206.64 132 208 C130.68 208 129.36 208 128 208 C128 210.64 128 213.28 128 216 C126.68 216 125.36 216 124 216 C124 217.32 124 218.64 124 220 C122.68 220 121.36 220 120 220 C120 221.32 120 222.64 120 224 C118.68 224 117.36 224 116 224 C116 225.32 116 226.64 116 228 C113.36 228 110.72 228 108 228 C108 229.32 108 230.64 108 232 C106.68 232 105.36 232 104 232 C104 233.32 104 234.64 104 236 C101.36 236 98.72 236 96 236 C96 237.32 96 238.64 96 240 C93.36 240 90.72 240 88 240 C88 241.32 88 242.64 88 244 C85.36 244 82.72 244 80 244 C80 245.32 80 246.64 80 248 C50.96 248 21.92 248 -8 248 C-8 246.68 -8 245.36 -8 244 C-10.64 244 -13.28 244 -16 244 C-16 242.68 -16 241.36 -16 240 C-18.64 240 -21.28 240 -24 240 C-24 238.68 -24 237.36 -24 236 C-26.64 236 -29.28 236 -32 236 C-32 234.68 -32 233.36 -32 232 C-34.64 232 -37.28 232 -40 232 C-40 230.68 -40 229.36 -40 228 C-41.32 228 -42.64 228 -44 228 C-44 226.68 -44 225.36 -44 224 C-45.32 224 -46.64 224 -48 224 C-48 222.68 -48 221.36 -48 220 C-49.32 220 -50.64 220 -52 220 C-52 218.68 -52 217.36 -52 216 C-53.32 216 -54.64 216 -56 216 C-56 214.68 -56 213.36 -56 212 C-57.32 212 -58.64 212 -60 212 C-60 210.68 -60 209.36 -60 208 C-61.32 208 -62.64 208 -64 208 C-64 205.36 -64 202.72 -64 200 C-65.32 200 -66.64 200 -68 200 C-68 198.68 -68 197.36 -68 196 C-69.32 196 -70.64 196 -72 196 C-72 193.36 -72 190.72 -72 188 C-73.32 188 -74.64 188 -76 188 C-76 185.36 -76 182.72 -76 180 C-77.32 180 -78.64 180 -80 180 C-80 177.36 -80 174.72 -80 172 C-81.32 172 -82.64 172 -84 172 C-84 168.04 -84 164.08 -84 160 C-85.32 160 -86.64 160 -88 160 C-88 137.56 -88 115.12 -88 92 C-86.68 92 -85.36 92 -84 92 C-84 88.04 -84 84.08 -84 80 C-82.68 80 -81.36 80 -80 80 C-80 77.36 -80 74.72 -80 72 C-78.68 72 -77.36 72 -76 72 C-76 68.04 -76 64.08 -76 60 C-74.68 60 -73.36 60 -72 60 C-72 58.68 -72 57.36 -72 56 C-70.68 56 -69.36 56 -68 56 C-68 53.36 -68 50.72 -68 48 C-66.68 48 -65.36 48 -64 48 C-64 46.68 -64 45.36 -64 44 C-62.68 44 -61.36 44 -60 44 C-60 42.68 -60 41.36 -60 40 C-58.68 40 -57.36 40 -56 40 C-56 38.68 -56 37.36 -56 36 C-54.68 36 -53.36 36 -52 36 C-52 34.68 -52 33.36 -52 32 C-50.68 32 -49.36 32 -48 32 C-48 30.68 -48 29.36 -48 28 C-46.68 28 -45.36 28 -44 28 C-44 26.68 -44 25.36 -44 24 C-42.68 24 -41.36 24 -40 24 C-40 22.68 -40 21.36 -40 20 C-38.68 20 -37.36 20 -36 20 C-36 18.68 -36 17.36 -36 16 C-33.36 16 -30.72 16 -28 16 C-28 14.68 -28 13.36 -28 12 C-25.36 12 -22.72 12 -20 12 C-20 10.68 -20 9.36 -20 8 C-17.36 8 -14.72 8 -12 8 C-12 6.68 -12 5.36 -12 4 C-8.04 4 -4.08 4 0 4 C0 2.68 0 1.36 0 0 Z " fill="#FEFEFE" transform="translate(96,4)"/>
</svg>
